<svg enable-background="new 0 0 158.37 172.62" viewBox="0 0 158.37 172.62" xmlns="http://www.w3.org/2000/svg"><path d="m24.03 133.4c.23-.02.62-.07 1.21-.22.55-.14 1.18-.36 1.89-.65.68-.28 1.48-.69 2.37-1.23 1.75-1.05 3.96-.97 5.62.22.65.47 1.17 1.07 1.53 1.75 1.01-.75 2.09-1.37 3.23-1.86 1.74-.74 3.61-1.11 5.54-1.11 1.98 0 3.79.38 5.37 1.14 1.65.79 3.03 1.91 4.11 3.35.99 1.31 1.72 2.86 2.17 4.61.39 1.51.58 3.16.59 4.91l.1-.5c.5-2.37 2.59-4.07 5.01-4.07h5.33c.66 0 1.31.13 1.91.37.59-.24 1.24-.37 1.91-.37h5.33c1.38 0 2.69.55 3.64 1.52.43-.26.88-.49 1.35-.7 1.65-.76 3.51-1.14 5.51-1.14 1.47 0 2.74.21 3.86.63 1.08.41 2.02.98 2.79 1.71.64-.43 1.31-.81 2.02-1.13 1.56-.71 3.26-1.06 5.06-1.06.9 0 1.73.09 2.49.26.29-.05.6-.08.9-.08h5.33c.74 0 1.45.16 2.1.45.65-.29 1.36-.45 2.11-.45h5.33c.58 0 1.16.1 1.69.29 1.86-.48 3.97-.36 5.67.47.17.08.31.2.47.29.78-.76 1.78-1.27 2.9-1.42l.72-.09c16.64-14.56 27.16-35.97 27.16-59.85.02-43.88-35.42-79.44-79.16-79.44s-79.19 35.56-79.19 79.42c0 20.97 8.12 40.04 21.36 54.23.44-.12.9-.2 1.37-.2.39 0 .82-.02 1.3-.05zm74.6-42.48 10.72-9.9-10.72-9.9c-.26-.19-.37-.49-.36-.8-.03-.29.06-.61.24-.85l5.57-6.05c.36-.47 1.07-.47 1.54-.12l18.26 16.95c.25.25.36.59.35.91.01.31-.1.62-.35.87l-18.26 16.71c-.47.36-1.19.36-1.54-.12l-5.57-6.05c-.19-.25-.27-.56-.24-.85-.01-.3.1-.6.36-.8zm-31.65 21.58 15.77-66.86c.12-.59.71-.83 1.19-.71l8.42 2.02c.59.12.95.59.83 1.19l-15.88 66.85v.01c-.12.59-.71.83-1.18.71l-8.42-2.02c-.62-.13-.85-.72-.73-1.19zm-27.86-47.18c0-.83.36-1.19 1.19-1.19h.12 3.79c.36 0 .47-.24.47-.47v-1.54c0-2.96.47-5.33 1.42-6.99s2.49-2.84 4.5-3.56c1.77-.63 4.19-.98 7.25-.97.45 0 .92.01 1.4.02h2.25.12c.83 0 1.19.36 1.19 1.19v5.22c0 .83-.36 1.19-1.19 1.19h-.12-1.9c-.11 0-.19.01-.29.02-.75.06-1.38.14-1.89.27-.56.18-1.02.43-1.37.78-.71.71-.95 1.9-.95 3.56v.71c0 .24.12.47.47.47h6.52.12c.83 0 1.19.36 1.19 1.19v6.28h-.11c0 .83-.36 1.19-1.19 1.19h-.11-6.52c-.24 0-.47.12-.47.47v27.26c0 .83-.36 1.19-1.19 1.19h-7.82c-.46 0-.76-.12-.95-.36-.24-.19-.36-.49-.36-.95v-27.16c0-.36-.24-.47-.47-.47h-3.79-.13c-.83 0-1.19-.36-1.19-1.19v-6.16z" fill="#ffda7e"/><g fill="#ffecbe"><path d="m26.52 138.14c-.19.05-.36.08-.54.12-.56.12-1.09.22-1.56.25-.63.05-1.19.07-1.7.07l-.43 1.7h3.51l-4.88 23.09h5.33l1.53-7.2 2.97-13.94.57-2.68.82-3.87c-1.12.67-2.14 1.2-3.07 1.58-.93.39-1.78.68-2.55.88z"/><path d="m50.82 137.87c-.58-.78-1.32-1.38-2.22-1.81s-1.95-.64-3.17-.64c-1.25 0-2.43.23-3.54.7s-2.13 1.13-3.06 1.97-1.77 1.85-2.51 3.03c-.05.07-.08.16-.13.23-.67 1.1-1.26 2.29-1.74 3.6-.01.02-.02.04-.02.05-.52 1.42-.91 2.93-1.18 4.54s-.41 3.26-.41 4.96c0 .71.04 1.39.12 2.05.06.54.13 1.07.24 1.57.23 1.13.64 2.1 1.2 2.94.57.83 1.33 1.49 2.29 1.97s2.17.72 3.61.72c1.13 0 2.18-.18 3.13-.54.96-.36 1.83-.86 2.62-1.48.79-.63 1.5-1.37 2.12-2.22.63-.86 1.18-1.78 1.66-2.76s.88-2 1.22-3.07c0-.01.01-.03.01-.04.34-1.08.62-2.17.84-3.24.22-1.08.38-2.13.48-3.16s.15-2 .15-2.9c0-1.34-.14-2.55-.42-3.65-.27-1.11-.71-2.05-1.29-2.82zm-3.54 9.46c-.16 1.44-.39 2.82-.69 4.16-.02.1-.05.18-.07.28-.28 1.22-.61 2.38-1 3.44-.42 1.15-.87 2.15-1.37 3s-1.04 1.52-1.61 2.01-1.16.73-1.76.73c-.51 0-.92-.16-1.23-.47s-.56-.73-.73-1.25-.3-1.11-.36-1.77c-.07-.66-.1-1.34-.1-2.04 0-1.37.09-2.76.28-4.17.15-1.12.35-2.2.58-3.26.06-.28.11-.56.18-.83.32-1.32.7-2.56 1.15-3.71.45-1.16.93-2.17 1.45-3.03s1.06-1.54 1.64-2.04c.57-.5 1.15-.75 1.74-.75.37 0 .7.14.97.43s.49.68.67 1.18c.17.5.3 1.08.39 1.73.08.65.13 1.34.13 2.06-.02 1.43-.1 2.86-.26 4.3z"/><path d="m125.66 149.47c.22-.25.39-.54.5-.86s.16-.64.16-.97c0-.36-.05-.71-.16-1.05s-.27-.63-.49-.89c-.08-.09-.17-.16-.25-.24-.16-.14-.34-.27-.55-.37-.25-.12-.54-.18-.86-.21-.09-.01-.16-.03-.25-.03-.45 0-.87.07-1.26.2-.4.13-.78.3-1.15.51s-.72.45-1.06.73-.67.56-.99.85l.47-2.29h-5.33l-1.34 6.34-1.18 5.56c-.13.46-.29.9-.48 1.32-.19.43-.42.8-.67 1.11s-.53.56-.84.75-.64.28-1 .28c-1.01 0-1.52-.53-1.52-1.59 0-.19.01-.39.04-.59.02-.2.07-.4.13-.61l.89-4.22 1.76-8.35h-5.33l-.4 1.97v-.27c0-.53-.24-.98-.71-1.34-.48-.36-1.24-.54-2.29-.54-1.07 0-2.05.2-2.95.61-.89.4-1.69.95-2.39 1.63s-1.32 1.46-1.84 2.35-.96 1.81-1.31 2.77-.61 1.93-.78 2.89c-.14.81-.21 1.57-.23 2.3-.22.23-.44.46-.66.69-.09.09-.18.2-.28.29-.46.46-.95.86-1.47 1.19-.52.34-1.07.6-1.67.79s-1.26.29-2 .29c-.45 0-.83-.05-1.17-.14-.33-.09-.61-.25-.83-.48s-.39-.55-.51-.95c-.02-.05-.02-.13-.03-.18-.09-.38-.14-.82-.14-1.36 0-.22.01-.45.03-.7s.04-.51.06-.79c1.11-.07 2.17-.32 3.2-.74 1.02-.42 1.93-.98 2.72-1.66.79-.69 1.42-1.49 1.89-2.41s.7-1.92.7-2.99c0-.46-.06-.9-.17-1.33s-.33-.8-.63-1.13c-.31-.33-.72-.59-1.25-.79-.52-.2-1.2-.3-2.03-.3-1.26 0-2.39.23-3.38.68s-1.85 1.05-2.58 1.79-1.36 1.58-1.88 2.52-.93 1.9-1.25 2.87c-.31.98-.54 1.93-.69 2.85-.14.93-.22 1.75-.22 2.46 0 .11.02.19.02.3-.12.28-.24.55-.37.79 0 0 0 .01-.01.02-.31.58-.65 1.08-1.03 1.49-.38.42-.8.76-1.26 1.03s-.97.5-1.54.7l.72-3.35 2.95-13.81h-5.33l-2.58 12.11c-.14.42-.3.81-.48 1.18 0 .01-.01.02-.01.03-.19.37-.4.7-.64.97s-.51.48-.8.63-.61.23-.95.23c-.22 0-.39-.05-.53-.14s-.25-.21-.33-.36-.14-.32-.18-.51-.05-.4-.05-.61c0-.25.04-.5.09-.75.01-.06.01-.12.02-.19l2.66-12.58h-5.33l-2.47 11.69-.04.18c-.1.47-.17.91-.22 1.31s-.07.77-.07 1.11c0 .78.1 1.45.31 2.01.2.55.48 1.01.84 1.37s.77.63 1.26.79c.48.17 1 .25 1.55.25.33 0 .66-.03 1.01-.08s.71-.15 1.08-.3c.37-.14.76-.35 1.16-.62s.8-.62 1.19-1.06l-.45 1.99c-.7.22-1.41.48-2.12.79-.72.31-1.36.69-1.94 1.13s-1.05.95-1.42 1.54-.55 1.27-.55 2.04c0 .6.11 1.13.33 1.58s.52.83.89 1.12c.37.3.81.52 1.31.67s1.03.23 1.6.23c.61 0 1.26-.08 1.92-.23.67-.16 1.31-.46 1.92-.92s1.17-1.1 1.67-1.92.88-1.89 1.15-3.22l.56-2.67c.58-.14 1.17-.36 1.79-.63.61-.28 1.21-.68 1.79-1.2.46-.41.88-.94 1.3-1.54.01.04.02.08.03.11.27.74.66 1.35 1.17 1.82s1.11.82 1.82 1.04 1.51.33 2.39.33c1.22 0 2.33-.2 3.35-.59s1.95-.91 2.78-1.54c.84-.64 1.59-1.37 2.26-2.19.05-.06.08-.12.13-.18.07.49.17.94.32 1.34.28.76.64 1.37 1.1 1.84s.98.81 1.57 1.01 1.2.31 1.84.31c.66 0 1.27-.1 1.82-.3s1.05-.46 1.49-.78c.45-.32.85-.68 1.21-1.08s.69-.82.99-1.24c.13 1.12.51 1.97 1.13 2.54s1.45.86 2.5.86c.33 0 .69-.03 1.08-.09.4-.06.81-.17 1.25-.34.43-.17.88-.41 1.34-.72.42-.29.83-.66 1.23-1.11l-.43 2.05h5.33l2.96-14.06c.46-.42.88-.76 1.26-1.02.39-.26.86-.39 1.43-.39.18 0 .31.06.39.18s.14.27.19.45.09.38.14.59c.04.21.11.41.21.59s.24.33.42.45c.15.1.37.14.62.16.06 0 .11.02.18.02.45 0 .84-.08 1.17-.24.34-.16.62-.37.84-.63zm-41.31 1.91c.31-.91.66-1.73 1.06-2.45s.82-1.31 1.27-1.76.91-.68 1.38-.68c.35 0 .59.14.72.42s.2.64.2 1.1c0 .77-.15 1.51-.44 2.23-.3.72-.69 1.36-1.18 1.92s-1.07 1.01-1.72 1.36-1.32.55-2.02.6c.18-.92.43-1.83.73-2.74zm-17.01 15.06c-.24 1.12-.56 1.95-.97 2.48-.4.54-.8.8-1.18.8-.22 0-.4-.04-.56-.11s-.29-.17-.39-.29-.18-.25-.23-.4c-.05-.14-.07-.28-.07-.42 0-.37.1-.71.3-1.02s.46-.59.8-.84c.33-.25.71-.48 1.15-.7.43-.21.89-.41 1.37-.59zm35.34-11.15-.31 1.45c-.12.54-.3 1.02-.53 1.43s-.49.75-.78 1.02c-.28.27-.58.48-.89.61-.31.14-.6.21-.88.21-.17 0-.36-.02-.58-.05-.22-.04-.42-.15-.61-.33-.19-.19-.35-.47-.48-.86s-.2-.93-.2-1.64c0-.13.01-.28.02-.42.02-.47.06-.98.14-1.54.11-.73.27-1.47.48-2.22s.47-1.48.77-2.2c.3-.71.64-1.35 1.03-1.91s.81-1.01 1.27-1.35.95-.51 1.47-.51c.3 0 .55.05.74.15s.35.23.46.38.2.31.24.47c.05.16.07.3.07.41z"/><path d="m135.72 156.01c-.02-.38-.05-.8-.09-1.26s-.09-1-.14-1.6-.1-1.33-.16-2.2c-.06-.86-.12-1.88-.19-3.05s-.14-2.56-.21-4.16l-5.47.72c-.05.16-.11.32-.16.49-.54 1.67-1.12 3.33-1.77 4.98-.62 1.59-1.4 3.21-2.27 4.83-.12.22-.22.44-.35.67-.25.12-.5.29-.73.5s-.44.46-.62.75-.33.62-.44.98c-.11.37-.17.77-.17 1.2 0 .57.11 1.13.32 1.69s.54 1.07.98 1.52c.45.45 1.01.82 1.69 1.1s1.48.42 2.41.42c.51 0 1.04-.05 1.61-.14s1.12-.24 1.67-.44 1.07-.47 1.57-.8.94-.73 1.32-1.2.68-1.02.9-1.65.33-1.35.33-2.16c0-.42-.01-.81-.03-1.19zm-5.61 2.84c-.18.43-.42.79-.72 1.06s-.64.46-1.03.58c-.39.11-.78.17-1.19.17-.82 0-1.4-.21-1.74-.64s-.51-1.08-.51-1.94c.1.2.23.34.42.4.18.06.37.09.58.09.25 0 .48-.05.68-.15s.37-.24.51-.42c.14-.17.25-.37.33-.59.07-.22.11-.44.11-.67 0-.31-.08-.57-.24-.78-.16-.2-.36-.37-.61-.51.53-1.03 1.01-2.02 1.46-3.01.07-.16.15-.32.22-.48.51-1.13.95-2.3 1.32-3.5.07.95.14 1.78.2 2.49s.12 1.34.17 1.88.1 1.02.14 1.43.08.78.1 1.11.05.64.06.94c.02.3.03.6.03.91-.02.66-.11 1.2-.29 1.63z"/></g></svg>