<svg xmlns="http://www.w3.org/2000/svg" width="34" height="34" viewBox="0 0 34 34">
    <path fill="#08031E" fill-rule="evenodd" d="M17 0C7.61 0 0 7.61 0 17c0 9.39 7.61 17 17 17s17-7.61 17-17C34 7.61 26.39 0 17 0zm0 9c2.173 0 2.445.01 3.298.048.852.039 1.433.174 1.942.372.526.204.972.478 1.417.923.445.444.718.89.923 1.417.198.508.333 1.09.372 1.941.039.854.048 1.126.048 3.299s-.01 2.445-.048 3.298c-.04.852-.174 1.433-.372 1.942a3.922 3.922 0 0 1-.923 1.417c-.445.445-.89.718-1.417.923-.509.198-1.09.333-1.942.372-.853.039-1.125.048-3.298.048s-2.445-.01-3.299-.048c-.851-.04-1.433-.174-1.941-.372a3.922 3.922 0 0 1-1.417-.923 3.921 3.921 0 0 1-.923-1.417c-.198-.509-.333-1.09-.372-1.942C9.009 19.445 9 19.173 9 17s.01-2.445.048-3.299c.039-.851.174-1.433.372-1.941.204-.527.478-.973.923-1.417.444-.445.89-.719 1.417-.923.508-.198 1.09-.333 1.941-.372C14.555 9.009 14.827 9 17 9zm0 1.441c-2.136 0-2.39.008-3.233.047-.78.036-1.203.166-1.485.275-.374.146-.64.319-.92.599-.28.28-.453.546-.599.92-.11.282-.24.705-.275 1.485-.039.844-.047 1.097-.047 3.233s.008 2.389.047 3.233c.036.78.166 1.203.275 1.485.146.373.319.64.599.92.28.28.546.453.92.598.282.11.705.24 1.485.276.844.038 1.097.046 3.233.046s2.39-.008 3.233-.046c.78-.036 1.203-.166 1.485-.276.373-.145.64-.318.92-.598.28-.28.453-.547.598-.92.11-.282.24-.705.276-1.485.038-.844.046-1.097.046-3.233s-.008-2.39-.046-3.233c-.036-.78-.166-1.203-.276-1.485a2.478 2.478 0 0 0-.598-.92 2.478 2.478 0 0 0-.92-.599c-.282-.11-.705-.24-1.485-.275-.844-.039-1.097-.047-3.233-.047zm0 9.226a2.667 2.667 0 1 0 0-5.334 2.667 2.667 0 0 0 0 5.334zm0-6.775a4.108 4.108 0 1 1 0 8.216 4.108 4.108 0 0 1 0-8.216zm5.23-.163a.96.96 0 1 1-1.92 0 .96.96 0 0 1 1.92 0z"/>
</svg>
