<svg xmlns="http://www.w3.org/2000/svg" viewBox="0 0 34 34">
  <path fill="currentColor" fill-rule="evenodd" d="M25.41 24.045h-3.443v-6.139c0-1.427-.498-2.4-1.744-2.4-.951 0-1.517.656-1.766 1.29-.091.227-.114.544-.114.861v6.388H14.9v-7.543c0-1.382-.045-2.537-.09-3.534h2.99l.158 1.54h.068c.453-.725 1.563-1.789 3.421-1.789 2.265 0 3.964 1.518 3.964 4.78v6.546zM11.096 11.61c-1.087 0-1.79-.77-1.79-1.722 0-.974.725-1.721 1.835-1.721 1.11 0 1.79.747 1.812 1.721 0 .952-.702 1.722-1.857 1.722zm-1.7 12.436h3.444V12.968H9.396v11.077zM17 0C7.61 0 0 7.61 0 17c0 9.39 7.61 17 17 17s17-7.61 17-17C34 7.61 26.39 0 17 0z"/>
</svg>
