<svg xmlns="http://www.w3.org/2000/svg" viewBox="0 0 35 34">
  <path fill="currentColor" fill-rule="evenodd" d="M24.363 13.927c.008.143.01.288.01.433 0 4.425-3.43 9.527-9.705 9.527a9.784 9.784 0 0 1-5.229-1.505c.267.032.538.047.814.047a6.926 6.926 0 0 0 4.236-1.434c-1.492-.026-2.752-.994-3.186-2.324a3.517 3.517 0 0 0 1.54-.058c-1.56-.308-2.736-1.66-2.736-3.283v-.042c.46.25.986.401 1.545.419a3.331 3.331 0 0 1-1.517-2.788c0-.613.167-1.188.462-1.683a9.745 9.745 0 0 0 7.03 3.499 3.287 3.287 0 0 1-.087-.763c0-1.85 1.527-3.348 3.41-3.348.981 0 1.868.406 2.49 1.057a6.897 6.897 0 0 0 2.166-.813 3.374 3.374 0 0 1-1.5 1.853 6.928 6.928 0 0 0 1.96-.527 6.861 6.861 0 0 1-1.703 1.733M17.32 0C7.754 0 0 7.611 0 17c0 9.39 7.754 17 17.32 17 9.565 0 17.32-7.61 17.32-17 0-9.389-7.755-17-17.32-17"/>
</svg>
