<svg width="178" height="37" viewBox="0 0 178 37" fill="none" xmlns="http://www.w3.org/2000/svg">
    <path d="M171.283 0H6.71698C3.00729 0 0 3.0119 0 6.72727V30.2727C0 33.9881 3.00729 37 6.71698 37H171.283C174.993 37 178 33.9881 178 30.2727V6.72727C178 3.0119 174.993 0 171.283 0Z" fill="#1E1732"/>
    <path d="M6.71698 0.5H171.283C174.716 0.5 177.5 3.28732 177.5 6.72727V30.2727C177.5 33.7127 174.716 36.5 171.283 36.5H6.71698C3.28416 36.5 0.5 33.7127 0.5 30.2727V6.72727C0.5 3.28732 3.28416 0.5 6.71698 0.5Z" stroke="white" stroke-opacity="0.3"/>
    <path d="M50.7451 12.8045V22.2841H51.9256V18.9011H54.3068C56.0843 18.9011 57.3504 17.6456 57.3504 15.8722C57.3504 14.0659 56.1103 12.8045 54.3194 12.8045H50.7451ZM51.9256 13.8557H54.0112C55.3823 13.8557 56.1363 14.5713 56.1363 15.8722C56.1363 17.1268 55.3555 17.85 54.0121 17.85H51.9256V13.8557ZM61.5813 22.4085C63.5955 22.4085 64.8415 21.016 64.8415 18.743C64.8415 16.4642 63.5955 15.0767 61.5813 15.0767C59.5679 15.0767 58.321 16.4642 58.321 18.743C58.321 21.016 59.5679 22.4094 61.5813 22.4094V22.4085ZM61.5813 21.391C60.2429 21.391 59.4889 20.4181 59.4889 18.743C59.4889 17.0612 60.2429 16.0958 61.5813 16.0958C62.9196 16.0958 63.6736 17.0612 63.6736 18.743C63.6736 20.4181 62.9196 21.3902 61.5813 21.3902V21.391ZM74.9766 15.202H73.8414L72.451 20.8655H72.3461L70.7651 15.202H69.6819L68.1018 20.8655H67.9968L66.6064 15.202H65.4645L67.446 22.2841H68.5879L70.1614 16.8047H70.2663L71.8473 22.2841H72.9951L74.9766 15.202ZM78.7742 16.0765C79.896 16.0765 80.6441 16.904 80.6701 18.1586H76.7742C76.859 16.904 77.6466 16.0757 78.7742 16.0757V16.0765ZM80.6373 20.4509C80.3418 21.0749 79.7255 21.4095 78.8137 21.4095C77.613 21.4095 76.8322 20.5232 76.7734 19.124V19.0718H81.8573V18.6379C81.8573 16.4372 80.6961 15.0775 78.7877 15.0775C76.8456 15.0775 75.5996 16.5222 75.5996 18.7497C75.5996 20.9899 76.8255 22.4085 78.7877 22.4085C80.3359 22.4085 81.4375 21.6601 81.7658 20.4509H80.6373ZM83.3594 22.2841H84.4879V17.8954C84.4879 16.8972 85.2687 16.174 86.3443 16.174C86.5676 16.174 86.974 16.2136 87.0663 16.2396V15.1111C86.8791 15.0889 86.6907 15.0777 86.5021 15.0775C85.5643 15.0775 84.7507 15.5644 84.5407 16.2548H84.4358V15.2036H83.3602V22.2841H83.3594ZM90.8312 16.0757C91.9529 16.0757 92.701 16.904 92.7271 18.1586H88.8304C88.916 16.904 89.7036 16.0757 90.8312 16.0757ZM92.6943 20.4509C92.3988 21.0749 91.7825 21.4095 90.8707 21.4095C89.67 21.4095 88.89 20.5232 88.8304 19.124V19.0718H93.9143V18.6379C93.9143 16.4372 92.7531 15.0775 90.8446 15.0775C88.9026 15.0775 87.6566 16.5222 87.6566 18.7497C87.6566 20.9899 88.8833 22.4085 90.8446 22.4085C92.3929 22.4085 93.4945 21.6601 93.8228 20.4509H92.6943ZM98.0343 22.4085C99.0117 22.4085 99.8513 21.9427 100.297 21.1539H100.402V22.2841H101.478V12.39H100.35V16.3187H100.251C99.8513 15.5434 99.0184 15.0775 98.0343 15.0775C96.2367 15.0775 95.0629 16.5222 95.0629 18.7439C95.0629 20.9706 96.2233 22.4085 98.0343 22.4085ZM98.2963 16.0958C99.5759 16.0958 100.376 17.1201 100.376 18.743C100.376 20.3786 99.5817 21.3902 98.2963 21.3902C97.0041 21.3902 96.23 20.3979 96.23 18.743C96.23 17.0948 97.0108 16.0958 98.2963 16.0958ZM110.439 22.4085C112.23 22.4085 113.404 20.9571 113.404 18.743C113.404 16.5163 112.236 15.0767 110.439 15.0767C109.468 15.0767 108.609 15.5568 108.221 16.3187H108.117V12.39H106.988V22.2841H108.064V21.1539H108.169C108.615 21.9427 109.455 22.4085 110.439 22.4085ZM110.176 16.0958C111.468 16.0958 112.236 17.0881 112.236 18.743C112.236 20.3988 111.468 21.3902 110.176 21.3902C108.891 21.3902 108.09 20.3786 108.09 18.743C108.09 17.1075 108.891 16.0958 110.176 16.0958ZM115.247 24.8463C116.5 24.8463 117.064 24.3603 117.667 22.718L120.43 15.202H119.229L117.294 21.0295H117.189L115.247 15.202H114.027L116.645 22.2908L116.513 22.7113C116.218 23.5648 115.864 23.8742 115.215 23.8742C115.057 23.8742 114.88 23.8675 114.742 23.8406V24.8068C114.9 24.8329 115.096 24.8463 115.247 24.8463ZM129.849 22.2841L133.122 12.8045H131.319L128.957 20.3063H128.846L126.465 12.8045H124.595L127.901 22.2841H129.849ZM136.58 16.2464C137.557 16.2464 138.2 16.93 138.233 17.9938H134.854C134.927 16.9426 135.609 16.2464 136.58 16.2464ZM138.246 20.3063C138.01 20.8386 137.452 21.1346 136.645 21.1346C135.576 21.1346 134.887 20.3862 134.848 19.1895V19.1046H139.859V18.579C139.859 16.312 138.633 14.9522 136.586 14.9522C134.507 14.9522 133.215 16.4045 133.215 18.717C133.215 21.0295 134.487 22.4287 136.599 22.4287C138.292 22.4287 139.492 21.6139 139.787 20.3063H138.246ZM141.224 22.2841H142.851V18.1317C142.851 17.1268 143.586 16.47 144.642 16.47C144.917 16.47 145.35 16.5163 145.475 16.5625V15.0506C145.324 15.0052 145.035 14.9791 144.799 14.9791C143.874 14.9791 143.1 15.5047 142.903 16.2136H142.792V15.0968H141.224V22.2841ZM152.559 17.5145C152.389 16.0033 151.273 14.9522 149.43 14.9522C147.272 14.9522 146.006 16.3389 146.006 18.6707C146.006 21.0362 147.279 22.4287 149.437 22.4287C151.254 22.4287 152.382 21.4171 152.559 19.9127H151.011C150.841 20.6611 150.276 21.0622 149.43 21.0622C148.322 21.0622 147.653 20.1818 147.653 18.6707C147.653 17.1798 148.315 16.3187 149.43 16.3187C150.323 16.3187 150.86 16.8182 151.011 17.5145H152.559ZM156.856 16.2464C157.833 16.2464 158.476 16.93 158.509 17.9938H155.13C155.203 16.9426 155.885 16.2464 156.856 16.2464ZM158.522 20.3063C158.286 20.8386 157.728 21.1346 156.921 21.1346C155.852 21.1346 155.164 20.3862 155.124 19.1895V19.1046H160.135V18.579C160.135 16.312 158.909 14.9522 156.862 14.9522C154.783 14.9522 153.491 16.4045 153.491 18.717C153.491 21.0295 154.763 22.4287 156.876 22.4287C158.568 22.4287 159.768 21.6139 160.063 20.3063H158.522ZM161.566 22.2841H163.192V12.3176H161.566V22.2841ZM19.5842 10.9318L27.4137 24.3864H11.7547L19.5842 10.9318Z" fill="white"/>
    <path d="M36.5236 0V37" stroke="white" stroke-opacity="0.3"/>
</svg>
