<svg xmlns="http://www.w3.org/2000/svg" viewBox="0 0 34 34">
  <path fill="currentColor" fill-rule="evenodd" d="M17 0C7.61 0 0 7.61 0 17c0 9.39 7.61 17 17 17s17-7.61 17-17C34 7.61 26.39 0 17 0zm0 6.729c2.724 0 5.336 1.082 7.262 3.009a10.267 10.267 0 0 1 0 14.524 10.267 10.267 0 0 1-14.524 0 10.267 10.267 0 0 1 0-14.524A10.267 10.267 0 0 1 17 6.729zm7.117 6.162a8.251 8.251 0 0 0-3.561-3.301 13.436 13.436 0 0 1 1.153 3.301h2.408zm-8.915-2.235a11.037 11.037 0 0 0-.8 2.235h5.197a11.175 11.175 0 0 0-.801-2.235C18.15 9.366 17.462 8.784 17 8.784c-.462 0-1.154.588-1.798 1.872zM9.04 19.054h2.927a20.333 20.333 0 0 1 0-4.108H9.04a8.265 8.265 0 0 0 0 4.108zm.84 2.053l.002.001a8.257 8.257 0 0 0 3.56 3.302 13.434 13.434 0 0 1-1.153-3.302H9.879zm2.408-8.216h.002a13.433 13.433 0 0 1 1.154-3.302 8.254 8.254 0 0 0-3.562 3.302h2.406zm6.51 10.453c.346-.714.615-1.464.8-2.236h-5.197c.186.772.455 1.522.801 2.236.647 1.29 1.336 1.872 1.798 1.872.462 0 1.153-.589 1.797-1.872zm1.167-4.29a18.31 18.31 0 0 0 0-4.108h-5.93a18.29 18.29 0 0 0 0 4.108h5.93zm.59 5.356a8.254 8.254 0 0 0 3.562-3.302H21.71a13.433 13.433 0 0 1-1.153 3.302zm4.66-7.41a8.205 8.205 0 0 0-.255-2.054h-2.927a20.333 20.333 0 0 1 0 4.108h2.927c.171-.672.258-1.361.256-2.054z"/>
</svg>
