<svg width="38" height="38" viewBox="0 0 38 38" fill="none" xmlns="http://www.w3.org/2000/svg">
<rect width="38" height="38" rx="19" fill="url(#paint0_linear_2311_16583)"/>
<path d="M15.0653 9.56539C14.0545 9.61308 13.364 9.77496 12.7608 10.0113C12.1362 10.2547 11.6069 10.5811 11.0802 11.1099C10.5529 11.6391 10.2292 12.1694 9.9875 12.7945C9.7536 13.3993 9.59495 14.0901 9.55049 15.1015C9.50603 16.115 9.49596 16.4382 9.5009 19.018C9.50584 21.5975 9.51724 21.9213 9.5655 22.935C9.61376 23.9456 9.77507 24.6357 10.0114 25.2393C10.2552 25.8639 10.5813 26.393 11.1102 26.9199C11.639 27.4468 12.1697 27.7703 12.7952 28.0122C13.3994 28.2459 14.0904 28.405 15.1016 28.4492C16.1149 28.4939 16.4385 28.5038 19.0176 28.4988C21.5978 28.4939 21.9214 28.4825 22.9347 28.4344C23.9455 28.3862 24.6352 28.2243 25.2392 27.9885C25.8638 27.7441 26.3931 27.4187 26.9198 26.8897C27.4465 26.3609 27.7703 25.8302 28.012 25.2047C28.2459 24.6005 28.4051 23.9095 28.449 22.8989C28.4932 21.885 28.5037 21.561 28.4987 18.9818C28.4938 16.4021 28.4822 16.0789 28.4341 15.0658C28.3861 14.0544 28.2242 13.3645 27.9882 12.7607C27.7441 12.1361 27.4184 11.6074 26.8896 11.0801C26.3608 10.5534 25.8302 10.2291 25.2047 9.98796C24.6001 9.75406 23.9094 9.59465 22.8982 9.55095C21.8851 9.50573 21.5617 9.49585 18.9817 9.50079C16.4022 9.50573 16.0788 9.51675 15.0655 9.56539M15.1763 26.7394C14.25 26.6991 13.7471 26.5452 13.4119 26.4162C12.9681 26.2444 12.6513 26.0385 12.3179 25.7077C11.9852 25.3756 11.7787 25.0598 11.6054 24.6169C11.4752 24.2817 11.3185 23.7793 11.2751 22.8531C11.228 21.8518 11.2172 21.5514 11.2126 19.0146C11.2077 16.4787 11.217 16.1781 11.2607 15.176C11.3004 14.2505 11.4553 13.7468 11.5839 13.412C11.7557 12.9676 11.9609 12.6514 12.2924 12.318C12.6246 11.9847 12.9403 11.7787 13.3836 11.6055C13.7186 11.4745 14.2208 11.3191 15.1467 11.2752C16.1485 11.2277 16.4487 11.2177 18.9847 11.2127C21.5213 11.2078 21.8218 11.2167 22.8239 11.2608C23.7494 11.3011 24.2531 11.4544 24.5877 11.584C25.0319 11.7557 25.3487 11.9604 25.6818 12.2925C26.0148 12.6246 26.2214 12.9398 26.3947 13.3841C26.5254 13.7181 26.681 14.221 26.7247 15.1465C26.7724 16.1484 26.7832 16.4488 26.7878 18.985C26.7927 21.5217 26.7834 21.8221 26.7395 22.8236C26.6992 23.7499 26.5455 24.253 26.4163 24.5886C26.2445 25.032 26.0392 25.3488 25.7074 25.6822C25.3757 26.0143 25.0599 26.2214 24.6162 26.3947C24.282 26.5253 23.7791 26.6811 22.8538 26.725C21.8519 26.7721 21.5517 26.7829 19.0147 26.7875C16.4788 26.7924 16.1786 26.7829 15.1765 26.7394M22.9208 13.9216C22.922 14.5507 23.4336 15.0601 24.0627 15.0589C24.6922 15.0578 25.2016 14.5465 25.2007 13.9172C25.1993 13.2881 24.6879 12.7783 24.0584 12.7795C23.4289 12.7806 22.9195 13.2923 22.9206 13.9214M14.122 19.0091C14.1271 21.7034 16.3154 23.8827 19.009 23.8774C21.7029 23.8721 23.8834 21.6845 23.8783 18.9903C23.8729 16.297 21.6845 14.1165 18.9902 14.1217C16.2966 14.127 14.1166 16.3154 14.122 19.0091ZM15.8331 19.0057C15.8301 17.2571 17.2454 15.8364 18.9936 15.8334C20.7422 15.83 22.1631 17.2447 22.1665 18.9937C22.1699 20.7427 20.7546 22.163 19.0056 22.1664C17.2572 22.1698 15.8364 20.7549 15.8331 19.0059" fill="#100036"/>
<defs>
<linearGradient id="paint0_linear_2311_16583" x1="0" y1="38" x2="38" y2="38" gradientUnits="userSpaceOnUse">
<stop stop-color="#00C2FF"/>
<stop offset="1" stop-color="#00FFF8"/>
</linearGradient>
</defs>
</svg>
