<svg xmlns="http://www.w3.org/2000/svg" width="38" height="38" viewBox="0 0 38 38">
    <defs>
        <linearGradient id="a" x1="0%" y1="50%" y2="50%">
            <stop offset="0%" stop-color="#E6E6E8"/>
            <stop offset="100%" stop-color="#00FFF8"/>
        </linearGradient>
    </defs>
    <g fill="none" fill-rule="evenodd">
        <rect width="38" height="38" fill="url(#a)" rx="19"/>
        <path fill="#08031E" d="M26.363 15.927c.007.143.01.288.01.433 0 4.425-3.431 9.527-9.705 9.527a9.784 9.784 0 0 1-5.229-1.505c.266.031.538.047.813.047a6.926 6.926 0 0 0 4.237-1.434c-1.492-.026-2.752-.995-3.187-2.324a3.517 3.517 0 0 0 1.54-.058c-1.56-.308-2.736-1.66-2.736-3.283a.8.8 0 0 1 .001-.042c.46.25.986.401 1.545.419a3.331 3.331 0 0 1-1.518-2.788c0-.613.168-1.188.462-1.683a9.745 9.745 0 0 0 7.031 3.499 3.287 3.287 0 0 1-.088-.763c0-1.85 1.527-3.348 3.411-3.348.981 0 1.868.406 2.49 1.057a6.897 6.897 0 0 0 2.166-.813 3.374 3.374 0 0 1-1.5 1.853 6.928 6.928 0 0 0 1.96-.527 6.861 6.861 0 0 1-1.703 1.733"/>
    </g>
</svg>
