<svg xmlns="http://www.w3.org/2000/svg" width="38" height="38" viewBox="0 0 38 38">
    <defs>
        <linearGradient id="a" x1="0%" y1="50%" y2="50%">
            <stop offset="0%" stop-color="#E6E6E8"/>
            <stop offset="100%" stop-color="#00FFF8"/>
        </linearGradient>
    </defs>
    <g fill="none" fill-rule="evenodd">
        <rect width="38" height="38" fill="url(#a)" rx="19"/>
        <path fill="#08031E" d="M27.905 15.84c-1.061 5.773-6.993 10.66-8.777 11.777-1.785 1.116-3.412-.447-4.003-1.63-.676-1.347-2.7-8.657-3.231-9.262-.53-.606-2.122.605-2.122.605L9 16.354s3.232-3.725 5.691-4.19c2.607-.494 2.603 3.863 3.23 6.283.607 2.34 1.015 3.68 1.544 3.68.53 0 1.543-1.306 2.652-3.307 1.111-2.003-.047-3.771-2.218-2.514.868-5.027 9.068-6.236 8.006-.466"/>
    </g>
</svg>
