<svg xmlns="http://www.w3.org/2000/svg" width="38" height="38" viewBox="0 0 38 38">
    <defs>
        <linearGradient id="a" x1="0%" y1="50%" y2="50%">
            <stop offset="0%" stop-color="#E6E6E8"/>
            <stop offset="100%" stop-color="#00FFF8"/>
        </linearGradient>
    </defs>
    <g fill="none" fill-rule="evenodd">
        <rect width="38" height="38" fill="url(#a)" rx="19"/>
        <path fill="#08031E" d="M24.672 24.098h-.846v-.532c0-.304.094-.513.432-.513.32 0 .414.228.414.513v.532zm.995 1.31h-.995c0 .4.13 1.008-.432 1.008-.414 0-.414-.342-.414-.665v-.912h1.84v-1.216c0-.874-.488-1.425-1.37-1.425-.845 0-1.484.55-1.484 1.425v2.147c0 .893.489 1.5 1.409 1.5.976 0 1.446-.531 1.446-1.5v-.361zm-.902-7.352h-1.202v-.665c-.356.38-.845.741-1.39.741-.638 0-.844-.494-.844-1.064V12.11h1.201v4.56c0 .228.057.4.32.4.225 0 .563-.286.713-.457V12.11h1.202v5.947zm-3.68 7.98c0 .247-.076.399-.338.399-.226 0-.32-.057-.47-.209v-3.002a.565.565 0 0 1 .413-.19c.3 0 .395.19.395.475v2.527zm.995-2.565c0-.627-.226-1.197-.94-1.197-.337 0-.638.19-.863.437v-2.09H19.3v6.517h.977v-.38c.282.304.507.437.92.437.657 0 .883-.456.883-1.064v-2.66zM19.094 13.42c0-.266-.282-.437-.526-.437-.244 0-.488.17-.488.437v3.249c0 .304.188.494.488.494.32 0 .526-.152.526-.494V13.42zm1.22 3.154c0 1.102-.713 1.634-1.746 1.634-.995 0-1.728-.608-1.728-1.653v-3.078c0-1.045.845-1.52 1.784-1.52.902 0 1.69.57 1.69 1.539v3.078zm-1.971 10.564V22.33h-.958v3.648c-.131.152-.357.36-.582.36-.207 0-.245-.151-.245-.322v-3.686h-.976v4.047c0 .437.188.836.676.836.395 0 .864-.323 1.127-.608v.532h.958zM16.897 10l-1.033 3.135c-.207.627-.394.95-.526 1.577-.019.152 0 3.021 0 3.344h-1.352c0-.304.019-3.078 0-3.192-.132-.646-.32-.988-.545-1.615L12.371 10h1.37l.865 3.211h.093L15.526 10h1.37zM15.6 21.57v-.949h-3.362v.95h1.127v5.567h1.09V21.57H15.6zm11.286 5.226c-.094 1.292-1.089 2.052-2.31 2.109C22.719 29 20.86 29 19 29c-1.86 0-3.737 0-5.577-.095-1.221-.057-2.217-.817-2.31-2.109-.057-.912-.113-1.843-.113-2.755 0-.912.056-1.843.113-2.755.093-1.292 1.089-2.052 2.31-2.11 1.84-.094 3.718-.094 5.577-.094 1.86 0 3.737 0 5.578.095 1.22.057 2.215.817 2.31 2.109.056.912.112 1.843.112 2.755 0 .912-.056 1.843-.113 2.755z"/>
    </g>
</svg>
